<?xml version="1.0" encoding="utf-8"?>
<!-- Generator: Adobe Illustrator 25.1.0, SVG Export Plug-In . SVG Version: 6.00 Build 0)  -->
<svg version="1.1" id="Layer_1" xmlns="http://www.w3.org/2000/svg" xmlns:xlink="http://www.w3.org/1999/xlink" x="0px" y="0px"
	 viewBox="0 0 179.3 70.2" style="enable-background:new 0 0 179.3 70.2;" xml:space="preserve">
<style type="text/css">
	.st0{fill:#7DC36E;}
	.st1{fill:#F09360;}
</style>
<g>
	<g>
		<g>
			<path class="st0" d="M144.5,41.8c9.7,0.9,21.8-0.9,34.8-9.6c0,0-14.5-11.5-34.8-8c10.9-10.1,12.2-23.9,12.2-23.9
				c-22.2-3.4-31.9,20.2-33.6,24.9c1.5,5,1.6,8.7,1.6,8.7s-0.2,0-0.6,0c0.4,0,0.6,0,0.6,0s0.1,2.7-0.6,6.7l0.3,2
				c0,0,11.1,28.8,35.5,23.5C159.9,66.1,157.5,51.2,144.5,41.8z"/>
			<path class="st1" d="M124.8,34c0,0-0.2,0-0.6,0C124.5,33.9,124.8,33.9,124.8,34c0,0-0.2-3.8-1.6-8.7c-3.2-10.7-12.3-27.1-38.8-25
				C45.5,3.3,3.2,36-0.1,37.8c-0.1,0-0.1,0.1-0.1,0.1c0,0,0,0.1,0.1,0.1c3.5,1.6,47.7,31.5,86.6,32.2c28.4,0.5,35.7-19,37.6-29.6
				C124.8,36.7,124.8,34,124.8,34z"/>
		</g>
	</g>
</g>
<image style="overflow:visible;" width="128" height="128" xlink:href="../../../222982131530099346-128.png"  transform="matrix(0.4948 0 0 0.4948 53.1284 3.412)">
</image>
</svg>
