<?xml version="1.0" encoding="utf-8"?>
<!-- Generator: Adobe Illustrator 25.1.0, SVG Export Plug-In . SVG Version: 6.00 Build 0)  -->
<svg version="1.1" xmlns="http://www.w3.org/2000/svg" xmlns:xlink="http://www.w3.org/1999/xlink" x="0px" y="0px"
	 viewBox="0 0 2299.6 1485.2" style="enable-background:new 0 0 2299.6 1485.2;" xml:space="preserve">
<style type="text/css">
	.st0{fill:none;}
	.st1{fill:#FFDCDC;}
	.st2{opacity:0.53;}
	.st3{fill:#7DC36E;}
	.st4{fill:#F09360;}
	.st5{fill:#BEC06E;}
	.st6{fill:#EF6C5F;}
	.st7{fill:#64AA81;}
	.st8{fill:#E96293;}
	.st9{display:none;}
	.st10{display:inline;}
	.st11{opacity:0.8;fill:url(#New_Pattern_Swatch_1);}
</style>
<pattern  x="623.3" y="593.2" width="432" height="432" patternUnits="userSpaceOnUse" id="New_Pattern_Swatch_1" viewBox="0 -432 432 432" style="overflow:visible;">
	<g>
		<rect y="-432" class="st0" width="432" height="432"/>
		<rect x="0" y="-432" class="st1" width="432" height="432"/>
		<g class="st2">
			<g>
				<path class="st3" d="M53.9-377.4c0,0,0.1,0.1,0.4,0.3C54.1-377.2,53.9-377.4,53.9-377.4c0,0,1.5-1.5,4.1-3.2l1-1.2
					c0,0,10.4-21.6-5.6-32.6c0,0-7.2,9.3-5.6,21.6c-4.6-6-12.1-11.9-24-14.6c0,0,1.2,14.3,13.9,24c-11.5-0.8-20,5.8-20,5.8
					c9.9,14.4,28.5,7.4,32,5.8C51.9-375.3,53.9-377.4,53.9-377.4z"/>
				<path class="st4" d="M122.7-308.7c-0.9-2.8-7.5-43.8-27.9-66.3c-14.9-16.4-29.8-10.2-36.8-5.6c-2.6,1.7-4.1,3.2-4.1,3.2
					s0.1,0.1,0.3,0.4c-0.2-0.2-0.4-0.3-0.4-0.3s-2,2.1-4.1,5.6c-4.4,7.5-8.8,21.4,6.5,35.3C78.8-316.1,119.8-309.5,122.7-308.7
					C122.7-308.6,122.7-308.6,122.7-308.7C122.7-308.6,122.7-308.6,122.7-308.7z"/>
			</g>
		</g>
		<g class="st2">
			<g>
				<path class="st5" d="M197.9-377.4c0,0,0.1,0.1,0.4,0.3C198.1-377.2,197.9-377.4,197.9-377.4c0,0,1.5-1.5,4.1-3.2l1-1.2
					c0,0,10.4-21.6-5.6-32.6c0,0-7.2,9.3-5.6,21.6c-4.6-6-12.1-11.9-24-14.6c0,0,1.2,14.3,13.9,24c-11.5-0.8-20,5.8-20,5.8
					c9.9,14.4,28.5,7.4,32,5.8C195.9-375.3,197.9-377.4,197.9-377.4z"/>
				<path class="st6" d="M266.7-308.7c-0.9-2.8-7.5-43.8-27.9-66.3c-14.9-16.4-29.8-10.2-36.8-5.6c-2.6,1.7-4.1,3.2-4.1,3.2
					s0.1,0.1,0.3,0.4c-0.2-0.2-0.4-0.3-0.4-0.3s-2,2.1-4.1,5.6c-4.4,7.5-8.8,21.4,6.5,35.3C222.8-316.1,263.8-309.5,266.7-308.7
					C266.7-308.6,266.7-308.6,266.7-308.7C266.7-308.6,266.7-308.6,266.7-308.7z"/>
			</g>
		</g>
		<g class="st2">
			<g>
				<path class="st7" d="M341.9-377.4c0,0,0.1,0.1,0.4,0.3C342.1-377.2,341.9-377.4,341.9-377.4c0,0,1.5-1.5,4.1-3.2l1-1.2
					c0,0,10.4-21.6-5.6-32.6c0,0-7.2,9.3-5.6,21.6c-4.6-6-12.1-11.9-24-14.6c0,0,1.2,14.3,13.9,24c-11.5-0.8-20,5.8-20,5.8
					c9.9,14.4,28.5,7.4,32,5.8C339.9-375.3,341.9-377.4,341.9-377.4z"/>
				<path class="st8" d="M410.7-308.7c-0.9-2.8-7.5-43.8-27.9-66.3c-14.9-16.4-29.8-10.2-36.8-5.6c-2.6,1.7-4.1,3.2-4.1,3.2
					s0.1,0.1,0.3,0.4c-0.2-0.2-0.4-0.3-0.4-0.3s-2,2.1-4.1,5.6c-4.4,7.5-8.8,21.4,6.5,35.3C366.8-316.1,407.8-309.5,410.7-308.7
					C410.7-308.6,410.7-308.6,410.7-308.7C410.7-308.6,410.7-308.6,410.7-308.7z"/>
			</g>
		</g>
		<g class="st2">
			<g>
				<path class="st5" d="M53.9-233.4c0,0,0.1,0.1,0.4,0.3C54.1-233.2,53.9-233.4,53.9-233.4c0,0,1.5-1.5,4.1-3.2l1-1.2
					c0,0,10.4-21.6-5.6-32.6c0,0-7.2,9.3-5.6,21.6c-4.6-6-12.1-11.9-24-14.6c0,0,1.2,14.3,13.9,24c-11.5-0.8-20,5.8-20,5.8
					c9.9,14.4,28.5,7.4,32,5.8C51.9-231.3,53.9-233.4,53.9-233.4z"/>
				<path class="st6" d="M122.7-164.7c-0.9-2.8-7.5-43.8-27.9-66.3c-14.9-16.4-29.8-10.2-36.8-5.6c-2.6,1.7-4.1,3.2-4.1,3.2
					s0.1,0.1,0.3,0.4c-0.2-0.2-0.4-0.3-0.4-0.3s-2,2.1-4.1,5.6c-4.4,7.5-8.8,21.4,6.5,35.3C78.8-172.1,119.8-165.5,122.7-164.7
					C122.7-164.6,122.7-164.6,122.7-164.7C122.7-164.6,122.7-164.6,122.7-164.7z"/>
			</g>
		</g>
		<g class="st2">
			<g>
				<path class="st7" d="M197.9-233.4c0,0,0.1,0.1,0.4,0.3C198.1-233.2,197.9-233.4,197.9-233.4c0,0,1.5-1.5,4.1-3.2l1-1.2
					c0,0,10.4-21.6-5.6-32.6c0,0-7.2,9.3-5.6,21.6c-4.6-6-12.1-11.9-24-14.6c0,0,1.2,14.3,13.9,24c-11.5-0.8-20,5.8-20,5.8
					c9.9,14.4,28.5,7.4,32,5.8C195.9-231.3,197.9-233.4,197.9-233.4z"/>
				<path class="st8" d="M266.7-164.7c-0.9-2.8-7.5-43.8-27.9-66.3c-14.9-16.4-29.8-10.2-36.8-5.6c-2.6,1.7-4.1,3.2-4.1,3.2
					s0.1,0.1,0.3,0.4c-0.2-0.2-0.4-0.3-0.4-0.3s-2,2.1-4.1,5.6c-4.4,7.5-8.8,21.4,6.5,35.3C222.8-172.1,263.8-165.5,266.7-164.7
					C266.7-164.6,266.7-164.6,266.7-164.7C266.7-164.6,266.7-164.6,266.7-164.7z"/>
			</g>
		</g>
		<g class="st2">
			<g>
				<path class="st3" d="M341.9-233.4c0,0,0.1,0.1,0.4,0.3C342.1-233.2,341.9-233.4,341.9-233.4c0,0,1.5-1.5,4.1-3.2l1-1.2
					c0,0,10.4-21.6-5.6-32.6c0,0-7.2,9.3-5.6,21.6c-4.6-6-12.1-11.9-24-14.6c0,0,1.2,14.3,13.9,24c-11.5-0.8-20,5.8-20,5.8
					c9.9,14.4,28.5,7.4,32,5.8C339.9-231.3,341.9-233.4,341.9-233.4z"/>
				<path class="st4" d="M410.7-164.7c-0.9-2.8-7.5-43.8-27.9-66.3c-14.9-16.4-29.8-10.2-36.8-5.6c-2.6,1.7-4.1,3.2-4.1,3.2
					s0.1,0.1,0.3,0.4c-0.2-0.2-0.4-0.3-0.4-0.3s-2,2.1-4.1,5.6c-4.4,7.5-8.8,21.4,6.5,35.3C366.8-172.1,407.8-165.5,410.7-164.7
					C410.7-164.6,410.7-164.6,410.7-164.7C410.7-164.6,410.7-164.6,410.7-164.7z"/>
			</g>
		</g>
		<g class="st2">
			<g>
				<path class="st7" d="M53.9-89.4c0,0,0.1,0.1,0.4,0.3C54.1-89.2,53.9-89.4,53.9-89.4c0,0,1.5-1.5,4.1-3.2l1-1.2
					c0,0,10.4-21.6-5.6-32.6c0,0-7.2,9.3-5.6,21.6c-4.6-6-12.1-11.9-24-14.6c0,0,1.2,14.3,13.9,24c-11.5-0.8-20,5.8-20,5.8
					c9.9,14.4,28.5,7.4,32,5.8C51.9-87.3,53.9-89.4,53.9-89.4z"/>
				<path class="st8" d="M122.7-20.7c-0.9-2.8-7.5-43.8-27.9-66.3C80-103.3,65.1-97.1,58.1-92.5c-2.6,1.7-4.1,3.2-4.1,3.2
					s0.1,0.1,0.3,0.4c-0.2-0.2-0.4-0.3-0.4-0.3s-2,2.1-4.1,5.6c-4.4,7.5-8.8,21.4,6.5,35.3C78.8-28.1,119.8-21.5,122.7-20.7
					C122.7-20.6,122.7-20.6,122.7-20.7C122.7-20.6,122.7-20.6,122.7-20.7z"/>
			</g>
		</g>
		<g class="st2">
			<g>
				<path class="st3" d="M197.9-89.4c0,0,0.1,0.1,0.4,0.3C198.1-89.2,197.9-89.4,197.9-89.4c0,0,1.5-1.5,4.1-3.2l1-1.2
					c0,0,10.4-21.6-5.6-32.6c0,0-7.2,9.3-5.6,21.6c-4.6-6-12.1-11.9-24-14.6c0,0,1.2,14.3,13.9,24c-11.5-0.8-20,5.8-20,5.8
					c9.9,14.4,28.5,7.4,32,5.8C195.9-87.3,197.9-89.4,197.9-89.4z"/>
				<path class="st4" d="M266.7-20.7c-0.9-2.8-7.5-43.8-27.9-66.3c-14.9-16.4-29.8-10.2-36.8-5.6c-2.6,1.7-4.1,3.2-4.1,3.2
					s0.1,0.1,0.3,0.4c-0.2-0.2-0.4-0.3-0.4-0.3s-2,2.1-4.1,5.6c-4.4,7.5-8.8,21.4,6.5,35.3C222.8-28.1,263.8-21.5,266.7-20.7
					C266.7-20.6,266.7-20.6,266.7-20.7C266.7-20.6,266.7-20.6,266.7-20.7z"/>
			</g>
		</g>
		<g class="st2">
			<g>
				<path class="st5" d="M341.9-89.4c0,0,0.1,0.1,0.4,0.3C342.1-89.2,341.9-89.4,341.9-89.4c0,0,1.5-1.5,4.1-3.2l1-1.2
					c0,0,10.4-21.6-5.6-32.6c0,0-7.2,9.3-5.6,21.6c-4.6-6-12.1-11.9-24-14.6c0,0,1.2,14.3,13.9,24c-11.5-0.8-20,5.8-20,5.8
					c9.9,14.4,28.5,7.4,32,5.8C339.9-87.3,341.9-89.4,341.9-89.4z"/>
				<path class="st6" d="M410.7-20.7c-0.9-2.8-7.5-43.8-27.9-66.3c-14.9-16.4-29.8-10.2-36.8-5.6c-2.6,1.7-4.1,3.2-4.1,3.2
					s0.1,0.1,0.3,0.4c-0.2-0.2-0.4-0.3-0.4-0.3s-2,2.1-4.1,5.6c-4.4,7.5-8.8,21.4,6.5,35.3C366.8-28.1,407.8-21.5,410.7-20.7
					C410.7-20.6,410.7-20.6,410.7-20.7C410.7-20.6,410.7-20.6,410.7-20.7z"/>
			</g>
		</g>
	</g>
</pattern>
<g id="Layer_1" class="st9">
	<g class="st10">
		<rect x="731.3" y="701.2" class="st1" width="432" height="432"/>
		<g class="st2">
			<g>
				<g>
					<path class="st3" d="M785.2,755.8c0,0,0.1,0.1,0.4,0.3C785.4,756,785.2,755.8,785.2,755.8c0,0,1.5-1.5,4.1-3.2l1-1.2
						c0,0,10.4-21.6-5.6-32.6c0,0-7.2,9.3-5.6,21.6c-4.6-6-12.1-11.9-24-14.6c0,0,1.2,14.3,13.9,24c-11.5-0.8-20,5.8-20,5.8
						c9.9,14.4,28.5,7.4,32,5.8C783.2,757.9,785.2,755.8,785.2,755.8z"/>
					<path class="st4" d="M854,824.5c-0.9-2.8-7.5-43.8-27.9-66.3c-14.9-16.4-29.8-10.2-36.8-5.6c-2.6,1.7-4.1,3.2-4.1,3.2
						s0.1,0.1,0.3,0.4c-0.2-0.2-0.4-0.3-0.4-0.3s-2,2.1-4.1,5.6c-4.4,7.5-8.8,21.4,6.5,35.3C810.1,817.1,851.1,823.6,854,824.5
						C854,824.6,854,824.6,854,824.5C854,824.6,854,824.6,854,824.5z"/>
				</g>
			</g>
		</g>
		<g class="st2">
			<g>
				<g>
					<path class="st5" d="M929.2,755.8c0,0,0.1,0.1,0.4,0.3C929.4,756,929.2,755.8,929.2,755.8c0,0,1.5-1.5,4.1-3.2l1-1.2
						c0,0,10.4-21.6-5.6-32.6c0,0-7.2,9.3-5.6,21.6c-4.6-6-12.1-11.9-24-14.6c0,0,1.2,14.3,13.9,24c-11.5-0.8-20,5.8-20,5.8
						c9.9,14.4,28.5,7.4,32,5.8C927.2,757.9,929.2,755.8,929.2,755.8z"/>
					<path class="st6" d="M998,824.5c-0.9-2.8-7.5-43.8-27.9-66.3c-14.9-16.4-29.8-10.2-36.8-5.6c-2.6,1.7-4.1,3.2-4.1,3.2
						s0.1,0.1,0.3,0.4c-0.2-0.2-0.4-0.3-0.4-0.3s-2,2.1-4.1,5.6c-4.4,7.5-8.8,21.4,6.5,35.3C954.1,817.1,995.1,823.6,998,824.5
						C998,824.6,998,824.6,998,824.5C998,824.6,998,824.6,998,824.5z"/>
				</g>
			</g>
		</g>
		<g class="st2">
			<g>
				<g>
					<path class="st7" d="M1073.2,755.8c0,0,0.1,0.1,0.4,0.3C1073.4,756,1073.2,755.8,1073.2,755.8c0,0,1.5-1.5,4.1-3.2l1-1.2
						c0,0,10.4-21.6-5.6-32.6c0,0-7.2,9.3-5.6,21.6c-4.6-6-12.1-11.9-24-14.6c0,0,1.2,14.3,13.9,24c-11.5-0.8-20,5.8-20,5.8
						c9.9,14.4,28.5,7.4,32,5.8C1071.2,757.9,1073.2,755.8,1073.2,755.8z"/>
					<path class="st8" d="M1142,824.5c-0.9-2.8-7.5-43.8-27.9-66.3c-14.9-16.4-29.8-10.2-36.8-5.6c-2.6,1.7-4.1,3.2-4.1,3.2
						s0.1,0.1,0.3,0.4c-0.2-0.2-0.4-0.3-0.4-0.3s-2,2.1-4.1,5.6c-4.4,7.5-8.8,21.4,6.5,35.3C1098.1,817.1,1139.1,823.6,1142,824.5
						C1142,824.6,1142,824.6,1142,824.5C1142,824.6,1142,824.6,1142,824.5z"/>
				</g>
			</g>
		</g>
		<g class="st2">
			<g>
				<g>
					<path class="st5" d="M785.2,899.8c0,0,0.1,0.1,0.4,0.3C785.4,900,785.2,899.8,785.2,899.8c0,0,1.5-1.5,4.1-3.2l1-1.2
						c0,0,10.4-21.6-5.6-32.6c0,0-7.2,9.3-5.6,21.6c-4.6-6-12.1-11.9-24-14.6c0,0,1.2,14.3,13.9,24c-11.5-0.8-20,5.8-20,5.8
						c9.9,14.4,28.5,7.4,32,5.8C783.2,901.9,785.2,899.8,785.2,899.8z"/>
					<path class="st6" d="M854,968.5c-0.9-2.8-7.5-43.8-27.9-66.3c-14.9-16.4-29.8-10.2-36.8-5.6c-2.6,1.7-4.1,3.2-4.1,3.2
						s0.1,0.1,0.3,0.4c-0.2-0.2-0.4-0.3-0.4-0.3s-2,2.1-4.1,5.6c-4.4,7.5-8.8,21.4,6.5,35.3C810.1,961.1,851.1,967.6,854,968.5
						C854,968.6,854,968.6,854,968.5C854,968.6,854,968.6,854,968.5z"/>
				</g>
			</g>
		</g>
		<g class="st2">
			<g>
				<g>
					<path class="st7" d="M929.2,899.8c0,0,0.1,0.1,0.4,0.3C929.4,900,929.2,899.8,929.2,899.8c0,0,1.5-1.5,4.1-3.2l1-1.2
						c0,0,10.4-21.6-5.6-32.6c0,0-7.2,9.3-5.6,21.6c-4.6-6-12.1-11.9-24-14.6c0,0,1.2,14.3,13.9,24c-11.5-0.8-20,5.8-20,5.8
						c9.9,14.4,28.5,7.4,32,5.8C927.2,901.9,929.2,899.8,929.2,899.8z"/>
					<path class="st8" d="M998,968.5c-0.9-2.8-7.5-43.8-27.9-66.3c-14.9-16.4-29.8-10.2-36.8-5.6c-2.6,1.7-4.1,3.2-4.1,3.2
						s0.1,0.1,0.3,0.4c-0.2-0.2-0.4-0.3-0.4-0.3s-2,2.1-4.1,5.6c-4.4,7.5-8.8,21.4,6.5,35.3C954.1,961.1,995.1,967.6,998,968.5
						C998,968.6,998,968.6,998,968.5C998,968.6,998,968.6,998,968.5z"/>
				</g>
			</g>
		</g>
		<g class="st2">
			<g>
				<g>
					<path class="st3" d="M1073.2,899.8c0,0,0.1,0.1,0.4,0.3C1073.4,900,1073.2,899.8,1073.2,899.8c0,0,1.5-1.5,4.1-3.2l1-1.2
						c0,0,10.4-21.6-5.6-32.6c0,0-7.2,9.3-5.6,21.6c-4.6-6-12.1-11.9-24-14.6c0,0,1.2,14.3,13.9,24c-11.5-0.8-20,5.8-20,5.8
						c9.9,14.4,28.5,7.4,32,5.8C1071.2,901.9,1073.2,899.8,1073.2,899.8z"/>
					<path class="st4" d="M1142,968.5c-0.9-2.8-7.5-43.8-27.9-66.3c-14.9-16.4-29.8-10.2-36.8-5.6c-2.6,1.7-4.1,3.2-4.1,3.2
						s0.1,0.1,0.3,0.4c-0.2-0.2-0.4-0.3-0.4-0.3s-2,2.1-4.1,5.6c-4.4,7.5-8.8,21.4,6.5,35.3C1098.1,961.1,1139.1,967.6,1142,968.5
						C1142,968.6,1142,968.6,1142,968.5C1142,968.6,1142,968.6,1142,968.5z"/>
				</g>
			</g>
		</g>
		<g class="st2">
			<g>
				<g>
					<path class="st7" d="M785.2,1043.8c0,0,0.1,0.1,0.4,0.3C785.4,1044,785.2,1043.8,785.2,1043.8c0,0,1.5-1.5,4.1-3.2l1-1.2
						c0,0,10.4-21.6-5.6-32.6c0,0-7.2,9.3-5.6,21.6c-4.6-6-12.1-11.9-24-14.6c0,0,1.2,14.3,13.9,24c-11.5-0.8-20,5.8-20,5.8
						c9.9,14.4,28.5,7.4,32,5.8C783.2,1045.9,785.2,1043.8,785.2,1043.8z"/>
					<path class="st8" d="M854,1112.5c-0.9-2.8-7.5-43.8-27.9-66.3c-14.9-16.4-29.8-10.2-36.8-5.6c-2.6,1.7-4.1,3.2-4.1,3.2
						s0.1,0.1,0.3,0.4c-0.2-0.2-0.4-0.3-0.4-0.3s-2,2.1-4.1,5.6c-4.4,7.5-8.8,21.4,6.5,35.3C810.1,1105.1,851.1,1111.6,854,1112.5
						C854,1112.6,854,1112.6,854,1112.5C854,1112.6,854,1112.6,854,1112.5z"/>
				</g>
			</g>
		</g>
		<g class="st2">
			<g>
				<g>
					<path class="st3" d="M929.2,1043.8c0,0,0.1,0.1,0.4,0.3C929.4,1044,929.2,1043.8,929.2,1043.8c0,0,1.5-1.5,4.1-3.2l1-1.2
						c0,0,10.4-21.6-5.6-32.6c0,0-7.2,9.3-5.6,21.6c-4.6-6-12.1-11.9-24-14.6c0,0,1.2,14.3,13.9,24c-11.5-0.8-20,5.8-20,5.8
						c9.9,14.4,28.5,7.4,32,5.8C927.2,1045.9,929.2,1043.8,929.2,1043.8z"/>
					<path class="st4" d="M998,1112.5c-0.9-2.8-7.5-43.8-27.9-66.3c-14.9-16.4-29.8-10.2-36.8-5.6c-2.6,1.7-4.1,3.2-4.1,3.2
						s0.1,0.1,0.3,0.4c-0.2-0.2-0.4-0.3-0.4-0.3s-2,2.1-4.1,5.6c-4.4,7.5-8.8,21.4,6.5,35.3C954.1,1105.1,995.1,1111.6,998,1112.5
						C998,1112.6,998,1112.6,998,1112.5C998,1112.6,998,1112.6,998,1112.5z"/>
				</g>
			</g>
		</g>
		<g class="st2">
			<g>
				<g>
					<path class="st5" d="M1073.2,1043.8c0,0,0.1,0.1,0.4,0.3C1073.4,1044,1073.2,1043.8,1073.2,1043.8c0,0,1.5-1.5,4.1-3.2l1-1.2
						c0,0,10.4-21.6-5.6-32.6c0,0-7.2,9.3-5.6,21.6c-4.6-6-12.1-11.9-24-14.6c0,0,1.2,14.3,13.9,24c-11.5-0.8-20,5.8-20,5.8
						c9.9,14.4,28.5,7.4,32,5.8C1071.2,1045.9,1073.2,1043.8,1073.2,1043.8z"/>
					<path class="st6" d="M1142,1112.5c-0.9-2.8-7.5-43.8-27.9-66.3c-14.9-16.4-29.8-10.2-36.8-5.6c-2.6,1.7-4.1,3.2-4.1,3.2
						s0.1,0.1,0.3,0.4c-0.2-0.2-0.4-0.3-0.4-0.3s-2,2.1-4.1,5.6c-4.4,7.5-8.8,21.4,6.5,35.3
						C1098.1,1105.1,1139.1,1111.6,1142,1112.5C1142,1112.6,1142,1112.6,1142,1112.5C1142,1112.6,1142,1112.6,1142,1112.5z"/>
				</g>
			</g>
		</g>
	</g>
</g>
<g id="Layer_2">
	<rect class="st11" width="2299.6" height="1485.2"/>
</g>
</svg>
