<?xml version="1.0" encoding="utf-8"?>
<!-- Generator: Adobe Illustrator 25.1.0, SVG Export Plug-In . SVG Version: 6.00 Build 0)  -->
<svg version="1.1" id="Layer_1" xmlns="http://www.w3.org/2000/svg" xmlns:xlink="http://www.w3.org/1999/xlink" x="0px" y="0px"
	 viewBox="0 0 10 30" style="enable-background:new 0 0 10 30;" xml:space="preserve">
<style type="text/css">
	.st0{fill:#7DC36E;}
	.st1{fill:#F09360;}
</style>
<g>
	<g>
		<g>
			<path class="st0" d="M6,5.8C6.1,4.2,5.8,2.2,4.6,0c0,0-1.6,2.4-1.1,5.8C2,4,0,3.8,0,3.8c-0.5,3.7,2.9,5.3,3.5,5.6
				c0.7-0.3,1.2-0.3,1.2-0.3s0,0,0,0.1c0-0.1,0-0.1,0-0.1s0.4,0,1,0.1L6,9.1c0,0,4.1-1.9,3.3-5.9C9.4,3.2,7.3,3.6,6,5.8z"/>
			<path class="st1" d="M4.8,9.1c0,0,0,0,0,0.1C4.8,9.2,4.8,9.1,4.8,9.1s-0.5,0-1.2,0.3c-1.5,0.5-3.9,2-3.6,6.5
				C0.5,22.4,5.1,29.4,5.4,30l0,0l0,0c0.2-0.6,4.5-8,4.6-14.5c0.1-4.7-2.7-6-4.2-6.3C5.2,9.1,4.8,9.1,4.8,9.1z"/>
		</g>
	</g>
	
		<image style="overflow:visible;enable-background:new    ;" width="128" height="128" xlink:href="222982131530099346-128.png"  transform="matrix(8.179850e-02 0 0 8.179850e-02 -0.224 10.1231)">
	</image>
</g>
<image style="overflow:visible;" width="128" height="128" xlink:href="222982131530099346-128.png"  transform="matrix(8.169426e-02 0 0 8.169426e-02 -0.2173 10.1231)">
</image>
</svg>
