<?xml version="1.0" encoding="utf-8"?>
<!-- Generator: Adobe Illustrator 25.1.0, SVG Export Plug-In . SVG Version: 6.00 Build 0)  -->
<svg version="1.1" xmlns="http://www.w3.org/2000/svg" xmlns:xlink="http://www.w3.org/1999/xlink" x="0px" y="0px"
	 viewBox="0 0 2559.3 1095.7" style="enable-background:new 0 0 2559.3 1095.7;" xml:space="preserve">
<style type="text/css">
	.st0{fill:none;}
	.st1{fill:#FFDCDC;}
	.st2{opacity:0.53;}
	.st3{fill:#7DC36E;}
	.st4{fill:#F09360;}
	.st5{fill:#BEC06E;}
	.st6{fill:#EF6C5F;}
	.st7{fill:#64AA81;}
	.st8{fill:#E96293;}
	.st9{display:none;}
	.st10{display:inline;}
	.st11{fill:url(#New_Pattern_Swatch_1);}
</style>
<pattern  x="623.3" y="203.7" width="432" height="432" patternUnits="userSpaceOnUse" id="New_Pattern_Swatch_1" viewBox="0 -432 432 432" style="overflow:visible;">
	<g>
		<rect y="-432" class="st0" width="432" height="432"/>
		<rect x="0" y="-432" class="st1" width="432" height="432"/>
		<g class="st2">
			<g>
				<path class="st3" d="M53.9-377.4c0,0,0.1,0.1,0.4,0.3C54.1-377.2,53.9-377.4,53.9-377.4c0,0,1.5-1.5,4.1-3.2l1-1.2
					c0,0,10.4-21.6-5.6-32.6c0,0-7.2,9.3-5.6,21.6c-4.6-6-12.1-11.9-24-14.6c0,0,1.2,14.3,13.9,24c-11.5-0.8-20,5.8-20,5.8
					c9.9,14.4,28.5,7.4,32,5.8C51.9-375.3,53.9-377.4,53.9-377.4z"/>
				<path class="st4" d="M122.7-308.7c-0.9-2.8-7.5-43.8-27.9-66.3c-14.9-16.4-29.8-10.2-36.8-5.6c-2.6,1.7-4.1,3.2-4.1,3.2
					s0.1,0.1,0.3,0.4c-0.2-0.2-0.4-0.3-0.4-0.3s-2,2.1-4.1,5.6c-4.4,7.5-8.8,21.4,6.5,35.3C78.8-316.1,119.8-309.5,122.7-308.7
					C122.7-308.6,122.7-308.6,122.7-308.7C122.7-308.6,122.7-308.6,122.7-308.7z"/>
			</g>
		</g>
		<g class="st2">
			<g>
				<path class="st5" d="M197.9-377.4c0,0,0.1,0.1,0.4,0.3C198.1-377.2,197.9-377.4,197.9-377.4c0,0,1.5-1.5,4.1-3.2l1-1.2
					c0,0,10.4-21.6-5.6-32.6c0,0-7.2,9.3-5.6,21.6c-4.6-6-12.1-11.9-24-14.6c0,0,1.2,14.3,13.9,24c-11.5-0.8-20,5.8-20,5.8
					c9.9,14.4,28.5,7.4,32,5.8C195.9-375.3,197.9-377.4,197.9-377.4z"/>
				<path class="st6" d="M266.7-308.7c-0.9-2.8-7.5-43.8-27.9-66.3c-14.9-16.4-29.8-10.2-36.8-5.6c-2.6,1.7-4.1,3.2-4.1,3.2
					s0.1,0.1,0.3,0.4c-0.2-0.2-0.4-0.3-0.4-0.3s-2,2.1-4.1,5.6c-4.4,7.5-8.8,21.4,6.5,35.3C222.8-316.1,263.8-309.5,266.7-308.7
					C266.7-308.6,266.7-308.6,266.7-308.7C266.7-308.6,266.7-308.6,266.7-308.7z"/>
			</g>
		</g>
		<g class="st2">
			<g>
				<path class="st7" d="M341.9-377.4c0,0,0.1,0.1,0.4,0.3C342.1-377.2,341.9-377.4,341.9-377.4c0,0,1.5-1.5,4.1-3.2l1-1.2
					c0,0,10.4-21.6-5.6-32.6c0,0-7.2,9.3-5.6,21.6c-4.6-6-12.1-11.9-24-14.6c0,0,1.2,14.3,13.9,24c-11.5-0.8-20,5.8-20,5.8
					c9.9,14.4,28.5,7.4,32,5.8C339.9-375.3,341.9-377.4,341.9-377.4z"/>
				<path class="st8" d="M410.7-308.7c-0.9-2.8-7.5-43.8-27.9-66.3c-14.9-16.4-29.8-10.2-36.8-5.6c-2.6,1.7-4.1,3.2-4.1,3.2
					s0.1,0.1,0.3,0.4c-0.2-0.2-0.4-0.3-0.4-0.3s-2,2.1-4.1,5.6c-4.4,7.5-8.8,21.4,6.5,35.3C366.8-316.1,407.8-309.5,410.7-308.7
					C410.7-308.6,410.7-308.6,410.7-308.7C410.7-308.6,410.7-308.6,410.7-308.7z"/>
			</g>
		</g>
		<g class="st2">
			<g>
				<path class="st5" d="M53.9-233.4c0,0,0.1,0.1,0.4,0.3C54.1-233.2,53.9-233.4,53.9-233.4c0,0,1.5-1.5,4.1-3.2l1-1.2
					c0,0,10.4-21.6-5.6-32.6c0,0-7.2,9.3-5.6,21.6c-4.6-6-12.1-11.9-24-14.6c0,0,1.2,14.3,13.9,24c-11.5-0.8-20,5.8-20,5.8
					c9.9,14.4,28.5,7.4,32,5.8C51.9-231.3,53.9-233.4,53.9-233.4z"/>
				<path class="st6" d="M122.7-164.7c-0.9-2.8-7.5-43.8-27.9-66.3c-14.9-16.4-29.8-10.2-36.8-5.6c-2.6,1.7-4.1,3.2-4.1,3.2
					s0.1,0.1,0.3,0.4c-0.2-0.2-0.4-0.3-0.4-0.3s-2,2.1-4.1,5.6c-4.4,7.5-8.8,21.4,6.5,35.3C78.8-172.1,119.8-165.5,122.7-164.7
					C122.7-164.6,122.7-164.6,122.7-164.7C122.7-164.6,122.7-164.6,122.7-164.7z"/>
			</g>
		</g>
		<g class="st2">
			<g>
				<path class="st7" d="M197.9-233.4c0,0,0.1,0.1,0.4,0.3C198.1-233.2,197.9-233.4,197.9-233.4c0,0,1.5-1.5,4.1-3.2l1-1.2
					c0,0,10.4-21.6-5.6-32.6c0,0-7.2,9.3-5.6,21.6c-4.6-6-12.1-11.9-24-14.6c0,0,1.2,14.3,13.9,24c-11.5-0.8-20,5.8-20,5.8
					c9.9,14.4,28.5,7.4,32,5.8C195.9-231.3,197.9-233.4,197.9-233.4z"/>
				<path class="st8" d="M266.7-164.7c-0.9-2.8-7.5-43.8-27.9-66.3c-14.9-16.4-29.8-10.2-36.8-5.6c-2.6,1.7-4.1,3.2-4.1,3.2
					s0.1,0.1,0.3,0.4c-0.2-0.2-0.4-0.3-0.4-0.3s-2,2.1-4.1,5.6c-4.4,7.5-8.8,21.4,6.5,35.3C222.8-172.1,263.8-165.5,266.7-164.7
					C266.7-164.6,266.7-164.6,266.7-164.7C266.7-164.6,266.7-164.6,266.7-164.7z"/>
			</g>
		</g>
		<g class="st2">
			<g>
				<path class="st3" d="M341.9-233.4c0,0,0.1,0.1,0.4,0.3C342.1-233.2,341.9-233.4,341.9-233.4c0,0,1.5-1.5,4.1-3.2l1-1.2
					c0,0,10.4-21.6-5.6-32.6c0,0-7.2,9.3-5.6,21.6c-4.6-6-12.1-11.9-24-14.6c0,0,1.2,14.3,13.9,24c-11.5-0.8-20,5.8-20,5.8
					c9.9,14.4,28.5,7.4,32,5.8C339.9-231.3,341.9-233.4,341.9-233.4z"/>
				<path class="st4" d="M410.7-164.7c-0.9-2.8-7.5-43.8-27.9-66.3c-14.9-16.4-29.8-10.2-36.8-5.6c-2.6,1.7-4.1,3.2-4.1,3.2
					s0.1,0.1,0.3,0.4c-0.2-0.2-0.4-0.3-0.4-0.3s-2,2.1-4.1,5.6c-4.4,7.5-8.8,21.4,6.5,35.3C366.8-172.1,407.8-165.5,410.7-164.7
					C410.7-164.6,410.7-164.6,410.7-164.7C410.7-164.6,410.7-164.6,410.7-164.7z"/>
			</g>
		</g>
		<g class="st2">
			<g>
				<path class="st7" d="M53.9-89.4c0,0,0.1,0.1,0.4,0.3C54.1-89.2,53.9-89.4,53.9-89.4c0,0,1.5-1.5,4.1-3.2l1-1.2
					c0,0,10.4-21.6-5.6-32.6c0,0-7.2,9.3-5.6,21.6c-4.6-6-12.1-11.9-24-14.6c0,0,1.2,14.3,13.9,24c-11.5-0.8-20,5.8-20,5.8
					c9.9,14.4,28.5,7.4,32,5.8C51.9-87.3,53.9-89.4,53.9-89.4z"/>
				<path class="st8" d="M122.7-20.7c-0.9-2.8-7.5-43.8-27.9-66.3C80-103.3,65.1-97.1,58.1-92.5c-2.6,1.7-4.1,3.2-4.1,3.2
					s0.1,0.1,0.3,0.4c-0.2-0.2-0.4-0.3-0.4-0.3s-2,2.1-4.1,5.6c-4.4,7.5-8.8,21.4,6.5,35.3C78.8-28.1,119.8-21.5,122.7-20.7
					C122.7-20.6,122.7-20.6,122.7-20.7C122.7-20.6,122.7-20.6,122.7-20.7z"/>
			</g>
		</g>
		<g class="st2">
			<g>
				<path class="st3" d="M197.9-89.4c0,0,0.1,0.1,0.4,0.3C198.1-89.2,197.9-89.4,197.9-89.4c0,0,1.5-1.5,4.1-3.2l1-1.2
					c0,0,10.4-21.6-5.6-32.6c0,0-7.2,9.3-5.6,21.6c-4.6-6-12.1-11.9-24-14.6c0,0,1.2,14.3,13.9,24c-11.5-0.8-20,5.8-20,5.8
					c9.9,14.4,28.5,7.4,32,5.8C195.9-87.3,197.9-89.4,197.9-89.4z"/>
				<path class="st4" d="M266.7-20.7c-0.9-2.8-7.5-43.8-27.9-66.3c-14.9-16.4-29.8-10.2-36.8-5.6c-2.6,1.7-4.1,3.2-4.1,3.2
					s0.1,0.1,0.3,0.4c-0.2-0.2-0.4-0.3-0.4-0.3s-2,2.1-4.1,5.6c-4.4,7.5-8.8,21.4,6.5,35.3C222.8-28.1,263.8-21.5,266.7-20.7
					C266.7-20.6,266.7-20.6,266.7-20.7C266.7-20.6,266.7-20.6,266.7-20.7z"/>
			</g>
		</g>
		<g class="st2">
			<g>
				<path class="st5" d="M341.9-89.4c0,0,0.1,0.1,0.4,0.3C342.1-89.2,341.9-89.4,341.9-89.4c0,0,1.5-1.5,4.1-3.2l1-1.2
					c0,0,10.4-21.6-5.6-32.6c0,0-7.2,9.3-5.6,21.6c-4.6-6-12.1-11.9-24-14.6c0,0,1.2,14.3,13.9,24c-11.5-0.8-20,5.8-20,5.8
					c9.9,14.4,28.5,7.4,32,5.8C339.9-87.3,341.9-89.4,341.9-89.4z"/>
				<path class="st6" d="M410.7-20.7c-0.9-2.8-7.5-43.8-27.9-66.3c-14.9-16.4-29.8-10.2-36.8-5.6c-2.6,1.7-4.1,3.2-4.1,3.2
					s0.1,0.1,0.3,0.4c-0.2-0.2-0.4-0.3-0.4-0.3s-2,2.1-4.1,5.6c-4.4,7.5-8.8,21.4,6.5,35.3C366.8-28.1,407.8-21.5,410.7-20.7
					C410.7-20.6,410.7-20.6,410.7-20.7C410.7-20.6,410.7-20.6,410.7-20.7z"/>
			</g>
		</g>
	</g>
</pattern>
<g id="Layer_1" class="st9">
	<g class="st10">
		<rect x="731.3" y="311.7" class="st1" width="432" height="432"/>
		<g class="st2">
			<g>
				<g>
					<path class="st3" d="M785.2,366.4c0,0,0.1,0.1,0.4,0.3C785.4,366.5,785.2,366.4,785.2,366.4c0,0,1.5-1.5,4.1-3.2l1-1.2
						c0,0,10.4-21.6-5.6-32.6c0,0-7.2,9.3-5.6,21.6c-4.6-6-12.1-11.9-24-14.6c0,0,1.2,14.3,13.9,24c-11.5-0.8-20,5.8-20,5.8
						c9.9,14.4,28.5,7.4,32,5.8C783.2,368.5,785.2,366.4,785.2,366.4z"/>
					<path class="st4" d="M854,435.1c-0.9-2.8-7.5-43.8-27.9-66.3c-14.9-16.4-29.8-10.2-36.8-5.6c-2.6,1.7-4.1,3.2-4.1,3.2
						s0.1,0.1,0.3,0.4c-0.2-0.2-0.4-0.3-0.4-0.3s-2,2.1-4.1,5.6c-4.4,7.5-8.8,21.4,6.5,35.3C810.1,427.7,851.1,434.2,854,435.1
						C854,435.2,854,435.2,854,435.1C854,435.1,854,435.1,854,435.1z"/>
				</g>
			</g>
		</g>
		<g class="st2">
			<g>
				<g>
					<path class="st5" d="M929.2,366.4c0,0,0.1,0.1,0.4,0.3C929.4,366.5,929.2,366.4,929.2,366.4c0,0,1.5-1.5,4.1-3.2l1-1.2
						c0,0,10.4-21.6-5.6-32.6c0,0-7.2,9.3-5.6,21.6c-4.6-6-12.1-11.9-24-14.6c0,0,1.2,14.3,13.9,24c-11.5-0.8-20,5.8-20,5.8
						c9.9,14.4,28.5,7.4,32,5.8C927.2,368.5,929.2,366.4,929.2,366.4z"/>
					<path class="st6" d="M998,435.1c-0.9-2.8-7.5-43.8-27.9-66.3c-14.9-16.4-29.8-10.2-36.8-5.6c-2.6,1.7-4.1,3.2-4.1,3.2
						s0.1,0.1,0.3,0.4c-0.2-0.2-0.4-0.3-0.4-0.3s-2,2.1-4.1,5.6c-4.4,7.5-8.8,21.4,6.5,35.3C954.1,427.7,995.1,434.2,998,435.1
						C998,435.2,998,435.2,998,435.1C998,435.1,998,435.1,998,435.1z"/>
				</g>
			</g>
		</g>
		<g class="st2">
			<g>
				<g>
					<path class="st7" d="M1073.2,366.4c0,0,0.1,0.1,0.4,0.3C1073.4,366.5,1073.2,366.4,1073.2,366.4c0,0,1.5-1.5,4.1-3.2l1-1.2
						c0,0,10.4-21.6-5.6-32.6c0,0-7.2,9.3-5.6,21.6c-4.6-6-12.1-11.9-24-14.6c0,0,1.2,14.3,13.9,24c-11.5-0.8-20,5.8-20,5.8
						c9.9,14.4,28.5,7.4,32,5.8C1071.2,368.5,1073.2,366.4,1073.2,366.4z"/>
					<path class="st8" d="M1142,435.1c-0.9-2.8-7.5-43.8-27.9-66.3c-14.9-16.4-29.8-10.2-36.8-5.6c-2.6,1.7-4.1,3.2-4.1,3.2
						s0.1,0.1,0.3,0.4c-0.2-0.2-0.4-0.3-0.4-0.3s-2,2.1-4.1,5.6c-4.4,7.5-8.8,21.4,6.5,35.3C1098.1,427.7,1139.1,434.2,1142,435.1
						C1142,435.2,1142,435.2,1142,435.1C1142,435.1,1142,435.1,1142,435.1z"/>
				</g>
			</g>
		</g>
		<g class="st2">
			<g>
				<g>
					<path class="st5" d="M785.2,510.4c0,0,0.1,0.1,0.4,0.3C785.4,510.5,785.2,510.4,785.2,510.4c0,0,1.5-1.5,4.1-3.2l1-1.2
						c0,0,10.4-21.6-5.6-32.6c0,0-7.2,9.3-5.6,21.6c-4.6-6-12.1-11.9-24-14.6c0,0,1.2,14.3,13.9,24c-11.5-0.8-20,5.8-20,5.8
						c9.9,14.4,28.5,7.4,32,5.8C783.2,512.5,785.2,510.4,785.2,510.4z"/>
					<path class="st6" d="M854,579.1c-0.9-2.8-7.5-43.8-27.9-66.3c-14.9-16.4-29.8-10.2-36.8-5.6c-2.6,1.7-4.1,3.2-4.1,3.2
						s0.1,0.1,0.3,0.4c-0.2-0.2-0.4-0.3-0.4-0.3s-2,2.1-4.1,5.6c-4.4,7.5-8.8,21.4,6.5,35.3C810.1,571.7,851.1,578.2,854,579.1
						C854,579.2,854,579.2,854,579.1C854,579.1,854,579.1,854,579.1z"/>
				</g>
			</g>
		</g>
		<g class="st2">
			<g>
				<g>
					<path class="st7" d="M929.2,510.4c0,0,0.1,0.1,0.4,0.3C929.4,510.5,929.2,510.4,929.2,510.4c0,0,1.5-1.5,4.1-3.2l1-1.2
						c0,0,10.4-21.6-5.6-32.6c0,0-7.2,9.3-5.6,21.6c-4.6-6-12.1-11.9-24-14.6c0,0,1.2,14.3,13.9,24c-11.5-0.8-20,5.8-20,5.8
						c9.9,14.4,28.5,7.4,32,5.8C927.2,512.5,929.2,510.4,929.2,510.4z"/>
					<path class="st8" d="M998,579.1c-0.9-2.8-7.5-43.8-27.9-66.3c-14.9-16.4-29.8-10.2-36.8-5.6c-2.6,1.7-4.1,3.2-4.1,3.2
						s0.1,0.1,0.3,0.4c-0.2-0.2-0.4-0.3-0.4-0.3s-2,2.1-4.1,5.6c-4.4,7.5-8.8,21.4,6.5,35.3C954.1,571.7,995.1,578.2,998,579.1
						C998,579.2,998,579.2,998,579.1C998,579.1,998,579.1,998,579.1z"/>
				</g>
			</g>
		</g>
		<g class="st2">
			<g>
				<g>
					<path class="st3" d="M1073.2,510.4c0,0,0.1,0.1,0.4,0.3C1073.4,510.5,1073.2,510.4,1073.2,510.4c0,0,1.5-1.5,4.1-3.2l1-1.2
						c0,0,10.4-21.6-5.6-32.6c0,0-7.2,9.3-5.6,21.6c-4.6-6-12.1-11.9-24-14.6c0,0,1.2,14.3,13.9,24c-11.5-0.8-20,5.8-20,5.8
						c9.9,14.4,28.5,7.4,32,5.8C1071.2,512.5,1073.2,510.4,1073.2,510.4z"/>
					<path class="st4" d="M1142,579.1c-0.9-2.8-7.5-43.8-27.9-66.3c-14.9-16.4-29.8-10.2-36.8-5.6c-2.6,1.7-4.1,3.2-4.1,3.2
						s0.1,0.1,0.3,0.4c-0.2-0.2-0.4-0.3-0.4-0.3s-2,2.1-4.1,5.6c-4.4,7.5-8.8,21.4,6.5,35.3C1098.1,571.7,1139.1,578.2,1142,579.1
						C1142,579.2,1142,579.2,1142,579.1C1142,579.1,1142,579.1,1142,579.1z"/>
				</g>
			</g>
		</g>
		<g class="st2">
			<g>
				<g>
					<path class="st7" d="M785.2,654.4c0,0,0.1,0.1,0.4,0.3C785.4,654.5,785.2,654.4,785.2,654.4c0,0,1.5-1.5,4.1-3.2l1-1.2
						c0,0,10.4-21.6-5.6-32.6c0,0-7.2,9.3-5.6,21.6c-4.6-6-12.1-11.9-24-14.6c0,0,1.2,14.3,13.9,24c-11.5-0.8-20,5.8-20,5.8
						c9.9,14.4,28.5,7.4,32,5.8C783.2,656.5,785.2,654.4,785.2,654.4z"/>
					<path class="st8" d="M854,723.1c-0.9-2.8-7.5-43.8-27.9-66.3c-14.9-16.4-29.8-10.2-36.8-5.6c-2.6,1.7-4.1,3.2-4.1,3.2
						s0.1,0.1,0.3,0.4c-0.2-0.2-0.4-0.3-0.4-0.3s-2,2.1-4.1,5.6c-4.4,7.5-8.8,21.4,6.5,35.3C810.1,715.7,851.1,722.2,854,723.1
						C854,723.2,854,723.2,854,723.1C854,723.1,854,723.1,854,723.1z"/>
				</g>
			</g>
		</g>
		<g class="st2">
			<g>
				<g>
					<path class="st3" d="M929.2,654.4c0,0,0.1,0.1,0.4,0.3C929.4,654.5,929.2,654.4,929.2,654.4c0,0,1.5-1.5,4.1-3.2l1-1.2
						c0,0,10.4-21.6-5.6-32.6c0,0-7.2,9.3-5.6,21.6c-4.6-6-12.1-11.9-24-14.6c0,0,1.2,14.3,13.9,24c-11.5-0.8-20,5.8-20,5.8
						c9.9,14.4,28.5,7.4,32,5.8C927.2,656.5,929.2,654.4,929.2,654.4z"/>
					<path class="st4" d="M998,723.1c-0.9-2.8-7.5-43.8-27.9-66.3c-14.9-16.4-29.8-10.2-36.8-5.6c-2.6,1.7-4.1,3.2-4.1,3.2
						s0.1,0.1,0.3,0.4c-0.2-0.2-0.4-0.3-0.4-0.3s-2,2.1-4.1,5.6c-4.4,7.5-8.8,21.4,6.5,35.3C954.1,715.7,995.1,722.2,998,723.1
						C998,723.2,998,723.2,998,723.1C998,723.1,998,723.1,998,723.1z"/>
				</g>
			</g>
		</g>
		<g class="st2">
			<g>
				<g>
					<path class="st5" d="M1073.2,654.4c0,0,0.1,0.1,0.4,0.3C1073.4,654.5,1073.2,654.4,1073.2,654.4c0,0,1.5-1.5,4.1-3.2l1-1.2
						c0,0,10.4-21.6-5.6-32.6c0,0-7.2,9.3-5.6,21.6c-4.6-6-12.1-11.9-24-14.6c0,0,1.2,14.3,13.9,24c-11.5-0.8-20,5.8-20,5.8
						c9.9,14.4,28.5,7.4,32,5.8C1071.2,656.5,1073.2,654.4,1073.2,654.4z"/>
					<path class="st6" d="M1142,723.1c-0.9-2.8-7.5-43.8-27.9-66.3c-14.9-16.4-29.8-10.2-36.8-5.6c-2.6,1.7-4.1,3.2-4.1,3.2
						s0.1,0.1,0.3,0.4c-0.2-0.2-0.4-0.3-0.4-0.3s-2,2.1-4.1,5.6c-4.4,7.5-8.8,21.4,6.5,35.3C1098.1,715.7,1139.1,722.2,1142,723.1
						C1142,723.2,1142,723.2,1142,723.1C1142,723.1,1142,723.1,1142,723.1z"/>
				</g>
			</g>
		</g>
	</g>
</g>
<g id="Layer_2">
	<rect x="-22" y="-37.4" class="st11" width="2643.4" height="1145.8"/>
</g>
</svg>
